<?xml version="1.0" encoding="UTF-8"?>
<svg id="Capa_1" xmlns="http://www.w3.org/2000/svg" version="1.1" viewBox="0 0 94 92">
  <!-- Generator: Adobe Illustrator 29.6.1, SVG Export Plug-In . SVG Version: 2.1.1 Build 9)  -->
  <defs>
    <style>
      .st0 {
        fill: #081821;
      }

      .st1 {
        fill: none;
      }
    </style>
  </defs>
  <g>
    <path class="st0" d="M72.5,41.57c-1-2.85-2.45-5.52-4.35-8.02l4.2-4.2-4.2-4.2-4.2,4.2c-2.5-1.9-5.17-3.35-8.03-4.35-2.85-1-5.83-1.5-8.92-1.5-3.7,0-7.19.71-10.46,2.14-3.27,1.43-6.14,3.36-8.59,5.81-2.45,2.45-4.39,5.31-5.81,8.59s-2.14,6.76-2.14,10.46.71,7.19,2.14,10.46c1.42,3.28,3.36,6.14,5.81,8.59s5.31,4.39,8.59,5.81c3.28,1.42,6.76,2.14,10.46,2.14s7.19-.71,10.46-2.14c3.27-1.42,6.14-3.36,8.59-5.81s4.39-5.31,5.81-8.59c1.42-3.27,2.14-6.76,2.14-10.46,0-3.1-.5-6.08-1.5-8.93ZM47,73c-12.43,0-22.5-10.07-22.5-22.5s10.07-22.5,22.5-22.5,22.5,10.07,22.5,22.5-10.07,22.5-22.5,22.5Z"/>
    <rect class="st0" x="38" y="14.5" width="18" height="6"/>
    <rect class="st1" x="44" y="35.5" width="6" height="18"/>
  </g>
  <path class="st0" d="M47,32.51c-9.94,0-18,8.06-18,18s8.06,18,18,18,18-8.06,18-18-8.06-18-18-18ZM50,53.5h-6v-18h6v18Z"/>
</svg>