<?xml version="1.0" encoding="UTF-8"?>
<svg id="Capa_1" xmlns="http://www.w3.org/2000/svg" version="1.1" viewBox="0 0 45.19 25.63">
  <!-- Generator: Adobe Illustrator 29.6.0, SVG Export Plug-In . SVG Version: 2.1.1 Build 207)  -->
  <defs>
    <style>
      .st0 {
        fill: #fff;
      }
    </style>
  </defs>
  <g id="g18">
    <path id="path8" class="st0" d="M10.17,23.55h4.52v-10.97l-6.45-4.84v13.87c0,1.07.87,1.94,1.94,1.94Z"/>
    <path id="path10" class="st0" d="M30.17,23.55h4.52c1.07,0,1.94-.87,1.94-1.94V7.74l-6.45,4.84v10.97Z"/>
    <path id="path12" class="st0" d="M30.17,4.2v8.39l6.45-4.84v-2.58c0-1.6-1.3-2.9-2.9-2.9-.63,0-1.24.2-1.74.58l-1.81,1.35Z"/>
    <path id="path14" class="st0" d="M14.69,12.58V4.2l7.74,5.81,7.74-5.81v8.39l-7.74,5.81-7.74-5.81Z"/>
    <path id="path16" class="st0" d="M8.24,5.16v2.58l6.45,4.84V4.2l-1.81-1.35c-1.28-.96-3.1-.7-4.06.58-.38.5-.58,1.11-.58,1.74Z"/>
  </g>
</svg>