<?xml version="1.0" encoding="UTF-8"?>
<svg id="Capa_1" xmlns="http://www.w3.org/2000/svg" version="1.1" viewBox="0 0 112 110">
  <!-- Generator: Adobe Illustrator 29.6.0, SVG Export Plug-In . SVG Version: 2.1.1 Build 207)  -->
  <defs>
    <style>
      .st0 {
        fill: #081821;
      }
    </style>
  </defs>
  <path class="st0" d="M47,61.75c-1.05,0-1.94-.36-2.66-1.09s-1.09-1.61-1.09-2.66.36-1.94,1.09-2.66,1.61-1.09,2.66-1.09,1.94.36,2.66,1.09,1.09,1.61,1.09,2.66-.36,1.94-1.09,2.66-1.61,1.09-2.66,1.09ZM65,61.75c-1.05,0-1.94-.36-2.66-1.09s-1.09-1.61-1.09-2.66.36-1.94,1.09-2.66,1.61-1.09,2.66-1.09,1.94.36,2.66,1.09,1.09,1.61,1.09,2.66-.36,1.94-1.09,2.66-1.61,1.09-2.66,1.09ZM56,79c6.7,0,12.38-2.33,17.03-6.98s6.98-10.32,6.98-17.03c0-1.2-.08-2.36-.23-3.49s-.43-2.21-.83-3.26c-1.05.25-2.1.44-3.15.56s-2.15.19-3.3.19c-4.55,0-8.85-.98-12.9-2.93s-7.5-4.67-10.35-8.18c-1.6,3.9-3.89,7.29-6.86,10.16-2.97,2.87-6.44,5.04-10.39,6.49v.45c0,6.7,2.33,12.38,6.98,17.03s10.32,6.98,17.03,6.98ZM56,85c-4.15,0-8.05-.79-11.7-2.36s-6.83-3.71-9.53-6.41-4.84-5.88-6.41-9.53-2.36-7.55-2.36-11.7.79-8.05,2.36-11.7,3.71-6.83,6.41-9.53,5.88-4.84,9.53-6.41,7.55-2.36,11.7-2.36,8.05.79,11.7,2.36c3.65,1.58,6.83,3.71,9.53,6.41s4.84,5.87,6.41,9.53,2.36,7.55,2.36,11.7-.79,8.05-2.36,11.7-3.71,6.83-6.41,9.53-5.87,4.84-9.53,6.41-7.55,2.36-11.7,2.36Z"/>
</svg>