<?xml version="1.0" encoding="UTF-8"?>
<svg id="Capa_1" xmlns="http://www.w3.org/2000/svg" version="1.1" viewBox="0 0 112 110">
  <!-- Generator: Adobe Illustrator 29.6.0, SVG Export Plug-In . SVG Version: 2.1.1 Build 207)  -->
  <defs>
    <style>
      .st0 {
        fill: #081821;
      }
    </style>
  </defs>
  <path class="st0" d="M29,73c-1.65,0-3.06-.59-4.24-1.76-1.18-1.17-1.76-2.59-1.76-4.24s.59-3.06,1.76-4.24c1.17-1.17,2.59-1.76,4.24-1.76h.79c.23,0,.46.05.71.15l13.65-13.65c-.1-.25-.15-.49-.15-.71v-.79c0-1.65.59-3.06,1.76-4.24s2.59-1.76,4.24-1.76,3.06.59,4.24,1.76,1.76,2.59,1.76,4.24c0,.1-.05.6-.15,1.5l7.65,7.65c.25-.1.49-.15.71-.15h1.58c.23,0,.46.05.71.15l10.65-10.65c-.1-.25-.15-.49-.15-.71v-.79c0-1.65.59-3.06,1.76-4.24s2.59-1.76,4.24-1.76,3.06.59,4.24,1.76,1.76,2.59,1.76,4.24-.59,3.06-1.76,4.24-2.59,1.76-4.24,1.76h-.79c-.23,0-.46-.05-.71-.15l-10.65,10.65c.1.25.15.49.15.71v.79c0,1.65-.59,3.06-1.76,4.24s-2.59,1.76-4.24,1.76-3.06-.59-4.24-1.76-1.76-2.59-1.76-4.24v-.79c0-.23.05-.46.15-.71l-7.65-7.65c-.25.1-.49.15-.71.15h-.79c-.1,0-.6-.05-1.5-.15l-13.65,13.65c.1.25.15.49.15.71v.79c0,1.65-.59,3.06-1.76,4.24-1.18,1.18-2.59,1.76-4.24,1.76Z"/>
</svg>