<?xml version="1.0" encoding="UTF-8"?>
<svg id="Capa_1" xmlns="http://www.w3.org/2000/svg" version="1.1" viewBox="0 0 112 110">
  <!-- Generator: Adobe Illustrator 29.6.0, SVG Export Plug-In . SVG Version: 2.1.1 Build 207)  -->
  <defs>
    <style>
      .st0 {
        fill: #081821;
      }
    </style>
  </defs>
  <path class="st0" d="M80.63,78.26v-43.79H31.37v21.89h-5.47v-21.89c0-1.51.54-2.79,1.61-3.87,1.07-1.07,2.36-1.61,3.87-1.61h49.26c1.51,0,2.79.54,3.87,1.61s1.61,2.36,1.61,3.87v38.32c0,1.51-.54,2.79-1.61,3.87-1.07,1.07-2.36,1.61-3.87,1.61ZM47.79,59.11c-3.01,0-5.59-1.07-7.73-3.22-2.14-2.14-3.22-4.72-3.22-7.73s1.07-5.59,3.22-7.73c2.14-2.14,4.72-3.22,7.73-3.22s5.59,1.07,7.73,3.22c2.14,2.14,3.22,4.72,3.22,7.73s-1.07,5.59-3.22,7.73c-2.14,2.14-4.72,3.22-7.73,3.22ZM25.89,81v-7.66c0-1.55.4-2.98,1.2-4.28.8-1.3,1.86-2.29,3.18-2.98,2.83-1.41,5.7-2.47,8.62-3.18,2.92-.71,5.88-1.06,8.89-1.06s5.98.35,8.89,1.06c2.92.71,5.79,1.77,8.62,3.18,1.32.68,2.38,1.68,3.18,2.98.8,1.3,1.2,2.73,1.2,4.28v7.66H25.89Z"/>
</svg>